<svg xmlns="http://www.w3.org/2000/svg" xmlns:xlink="http://www.w3.org/1999/xlink" xmlns:svgjs="http://svgjs.dev/svgjs" version="1.1" viewBox="12.68 26.58 102.08 74.7"><g transform="matrix(0.8046875,0,0,0.8046875,12.221578124999994,26.516183664517854)"><svg xmlns="http://www.w3.org/2000/svg" xmlns:xlink="http://www.w3.org/1999/xlink" viewBox="0 0 96 70" data-background-color="#ffffff" preserveAspectRatio="xMidYMid meet" height="93" width="128"><g id="tight-bounds" transform="matrix(1,0,0,1,0.25950000000000273,0.061592480000001615)"><svg viewBox="0 0 95.481 69.87681504" height="69.87681504" width="95.481"><g><svg viewBox="0 0 95.481 69.87681504" height="69.87681504" width="95.481"><g><svg viewBox="0 0 95.481 69.87681504" height="69.87681504" width="95.481"><g id="textblocktransform"><svg viewBox="0 0 95.481 69.87681504" height="69.87681504" width="95.481" id="textblock"><g><svg viewBox="0 0 95.481 69.87681504" height="69.87681504" width="95.481"><g><svg viewBox="0 0 95.481 69.87681504" height="69.87681504" width="95.481"><g><svg xmlns="http://www.w3.org/2000/svg" xmlns:xlink="http://www.w3.org/1999/xlink" version="1.1" x="0" y="0" viewBox="0 13.408 100 73.184" enable-background="new 0 0 100 100" xml:space="preserve" height="69.87681504" width="95.481" class="icon-icon-0" data-fill-palette-color="accent" id="icon-0"><path d="M47.827 28.983L47.81 28.997A27 27 0 0 0 45.816 30.709L45.795 30.73A27 27 0 0 0 43.978 32.634L43.971 32.643C39.944 37.305 37.5 43.37 37.5 50 37.5 54.225 38.495 58.22 40.255 61.771 43.874 60.389 46.76 57.372 47.931 53.665A16.3 16.3 0 0 1 47.5 50C47.5 46.839 48.43 43.876 50.004 41.344 50.229 40.982 50.467 40.629 50.718 40.285A17 17 0 0 1 53.135 37.63C53.211 37.562 53.283 37.49 53.362 37.424 53.575 37.24 53.8 37.068 54.022 36.895A15.5 15.5 0 0 1 55.873 35.646C56.036 35.552 56.197 35.454 56.363 35.365 56.782 35.14 57.209 34.928 57.648 34.74L57.66 34.734A16.3 16.3 0 0 1 64.092 33.411H89.842C95.451 33.411 99.998 28.933 99.998 23.411H64.092V23.408A26.44 26.44 0 0 0 47.827 28.983" fill="#1976d2" data-fill-palette-color="accent"/><path d="M100 66.591H64.092C63.284 66.591 62.495 66.511 61.717 66.397A30.9 30.9 0 0 1 54.049 74.618 26.5 26.5 0 0 0 64.014 76.592H64A5 5 0 0 1 69 81.592V86.592z" fill="#1976d2" data-fill-palette-color="accent"/><path d="M35.908 33.409C36.716 33.409 37.505 33.489 38.284 33.603A30.8 30.8 0 0 1 45.952 25.383 26.5 26.5 0 0 0 35.986 23.408H36A5 5 0 0 1 31 18.408V13.408L0 33.408z" fill="#1976d2" data-fill-palette-color="accent"/><path d="M50.003 72.536A27 27 0 0 0 52.171 71.018L52.192 71.001A27 27 0 0 0 56.017 67.369C56.021 67.364 56.025 67.358 56.031 67.353A27 27 0 0 0 57.654 65.274L57.66 65.267H57.659A26.44 26.44 0 0 0 62.498 49.999C62.498 45.774 61.504 41.779 59.742 38.228 56.123 39.61 53.237 42.627 52.066 46.335 52.339 47.518 52.498 48.741 52.498 49.999 52.498 53.157 51.57 56.117 49.998 58.647A17.1 17.1 0 0 1 46.861 62.37C46.785 62.437 46.713 62.509 46.636 62.574 46.422 62.759 46.198 62.931 45.975 63.104A15.4 15.4 0 0 1 44.128 64.35C43.963 64.446 43.801 64.545 43.633 64.635A16 16 0 0 1 42.361 65.253L42.337 65.265A16.3 16.3 0 0 1 35.905 66.588H10.157C4.547 66.588 0 71.066 0 76.588H35.908V76.592C41.082 76.592 45.912 75.102 50.001 72.534 50.002 72.537 50.003 72.536 50.003 72.536" fill="#1976d2" data-fill-palette-color="accent"/></svg></g></svg></g></svg></g></svg></g></svg></g></svg></g><defs/></svg><rect width="95.481" height="69.87681504" fill="none" stroke="none" visibility="hidden"/></g></svg></g></svg>