<svg xmlns="http://www.w3.org/2000/svg" xmlns:xlink="http://www.w3.org/1999/xlink" xmlns:svgjs="http://svgjs.dev/svgjs" version="1.1" viewBox="0.26 0 1996.98 304.65"><g transform="matrix(1,0,0,1,-1.2121212121212466,-1.6743642514036878)"><svg xmlns="http://www.w3.org/2000/svg" xmlns:xlink="http://www.w3.org/1999/xlink" viewBox="0 0 396 61" data-background-color="#ffffff" preserveAspectRatio="xMidYMid meet" height="308" width="2000"><g id="tight-bounds" transform="matrix(1,0,0,1,0.2400000000000091,0.3316111017390426)"><svg viewBox="0 0 395.52 60.33677779652193" height="60.33677779652193" width="395.52"><g><svg viewBox="0 0 522.3013609029242 79.6773390868243" height="60.33677779652193" width="395.52"><g transform="matrix(1,0,0,1,126.78136090292422,1.9086391303836052)"><svg viewBox="0 0 395.52 75.8600608260571" height="75.8600608260571" width="395.52"><g id="textblocktransform"><svg viewBox="0 0 395.52 75.8600608260571" height="75.8600608260571" width="395.52" id="textblock"><g><svg viewBox="0 0 395.52 75.8600608260571" height="75.8600608260571" width="395.52"><g transform="matrix(1,0,0,1,0,0)"><svg width="395.52" viewBox="1.05 -36.84 248.82999999999998 47.73" height="75.8600608260571" data-palette-color="#ffffff"><path d="M26.25-12.4L26.25-12.4Q26.25-8.47 24.73-5.54 23.22-2.61 20.39-1 17.55 0.61 13.6 0.61L13.6 0.61Q12.7 0.61 11.66 0.49 10.62 0.37 9.89 0.26 9.16 0.15 9.16 0.15L9.16 0.15 9.16 7.59Q9.16 8.06 9.47 8.33 9.79 8.59 10.25 8.64L10.25 8.64 13.21 8.96 13.21 10.89 1.05 10.89 1.05 8.96 3.44 8.64Q4.49 8.57 4.49 7.59L4.49 7.59 4.49-20.56 1.05-20.56 1.05-22.19 7.2-24.1 9.16-24.1 9.16-21.61Q9.16-21.61 9.78-22.07 10.4-22.53 11.46-23.16 12.52-23.78 13.88-24.24 15.23-24.71 16.7-24.71L16.7-24.71Q19.29-24.71 21.45-23.18 23.61-21.66 24.93-18.9 26.25-16.14 26.25-12.4ZM21.24-11.69L21.24-11.69Q21.24-14.28 20.45-16.43 19.65-18.58 18.1-19.89 16.55-21.19 14.26-21.19L14.26-21.19Q13.01-21.19 11.84-20.83 10.67-20.46 9.91-20.08 9.16-19.7 9.16-19.7L9.16-19.7 9.16-2.49Q9.16-2.49 10.41-2.1 11.67-1.71 13.21-1.71L13.21-1.71Q15.97-1.71 17.74-3.13 19.51-4.54 20.37-6.82 21.24-9.11 21.24-11.69ZM53.44-12.01L53.44-12.01Q53.44-8.47 51.98-5.6 50.51-2.73 47.84-1.06 45.16 0.61 41.5 0.61L41.5 0.61Q37.86 0.61 35.2-1.05 32.54-2.71 31.1-5.57 29.66-8.42 29.66-12.01L29.66-12.01Q29.66-15.58 31.11-18.46 32.57-21.34 35.26-23.02 37.96-24.71 41.65-24.71L41.65-24.71Q45.38-24.71 48.02-23 50.66-21.29 52.05-18.41 53.44-15.53 53.44-12.01ZM48.24-12.06L48.24-12.06Q48.24-14.79 47.52-17.16 46.8-19.53 45.32-21 43.85-22.46 41.6-22.46L41.6-22.46Q39.28-22.46 37.8-21 36.33-19.53 35.62-17.16 34.91-14.79 34.91-12.06L34.91-12.06Q34.91-9.35 35.63-6.97 36.35-4.59 37.83-3.13 39.3-1.66 41.55-1.66L41.55-1.66Q43.85-1.66 45.32-3.13 46.8-4.59 47.52-6.96 48.24-9.33 48.24-12.06ZM76.75-4.71L76.75-4.71 76.75-1.86Q75.07-0.95 72.96-0.17 70.84 0.61 68.31 0.61L68.31 0.61Q64.81 0.61 62.24-1.03 59.66-2.66 58.26-5.48 56.86-8.3 56.86-11.89L56.86-11.89Q56.86-16.09 58.53-18.95 60.2-21.8 62.95-23.25 65.69-24.71 68.89-24.71L68.89-24.71Q72.19-24.71 74.42-23.43 76.66-22.14 76.66-19.7L76.66-19.7Q76.66-18.24 75.74-17.49 74.82-16.75 73.7-16.75L73.7-16.75Q72.87-16.75 72.26-17.03 71.65-17.31 71.19-17.6L71.19-17.6 71.19-21.95Q70.04-22.61 69.09-22.61L69.09-22.61Q66.87-22.61 65.27-21.3 63.67-20 62.81-17.72 61.96-15.45 61.96-12.55L61.96-12.55Q61.96-9.79 62.89-7.51 63.81-5.22 65.66-3.88 67.5-2.54 70.23-2.54L70.23-2.54Q71.97-2.54 73.55-3.1 75.14-3.66 76.75-4.71ZM104.63-1.95L104.63 0 96.62 0 96.62-1.95 90.37-11.35 87.59-11.35 87.59-3.2Q87.59-2.17 88.64-2.1L88.64-2.1 90.79-1.95 90.79 0 79.44 0 79.44-1.95 81.88-2.1Q82.93-2.17 82.93-3.2L82.93-3.2 82.93-33.25 79.14-33.25 79.14-34.91 85.54-36.84 87.59-36.84 87.59-12.79 88.59-12.79 95.94-21.09Q96.04-21.22 96.04-21.41L96.04-21.41Q96.04-21.9 95.52-21.95L95.52-21.95 93.47-22.14 93.47-24.1 103.19-24.1 103.19-22.14 99.99-21.8 93.38-14.75 101.99-2.25 104.63-1.95ZM127.94-5.54L127.94-2.49Q125.84-1.2 123.42-0.29 120.99 0.61 118.45 0.61L118.45 0.61Q115.42 0.61 112.77-0.74 110.12-2.1 108.49-4.86 106.85-7.62 106.85-11.79L106.85-11.79Q106.85-15.7 108.36-18.6 109.88-21.51 112.54-23.11 115.2-24.71 118.59-24.71L118.59-24.71Q123.26-24.71 125.6-21.81 127.94-18.92 127.94-14.45L127.94-14.45Q127.94-14.21 127.94-13.81 127.94-13.4 127.9-13.06L127.9-13.06 111.68-13.06Q111.68-11.16 112.09-9.27 112.49-7.37 113.44-5.83 114.39-4.3 116.01-3.37 117.62-2.44 120.03-2.44L120.03-2.44Q122.18-2.44 124.22-3.43 126.26-4.42 127.94-5.54L127.94-5.54ZM111.95-15.31L122.94-15.31 122.94-16.41Q122.94-18.87 121.76-20.56 120.57-22.24 118.08-22.24L118.08-22.24Q115.62-22.24 113.88-20.39 112.15-18.53 111.95-15.31L111.95-15.31ZM146.3-3.05L146.3-3.05 146.3-1.05Q146.3-1.05 145.36-0.63 144.42-0.22 142.9 0.2 141.37 0.61 139.56 0.61L139.56 0.61Q136.76 0.61 135.47-0.72 134.19-2.05 134.19-5L134.19-5 134.19-21.61 130.99-21.61 130.99-23.24 134.41-24.85 136.66-30.15 138.85-30.15 138.85-24.1 145.91-24.1 145.91-21.61 138.85-21.61 138.85-7.64Q138.85-4.66 139.86-3.43 140.86-2.2 142.86-2.2L142.86-2.2Q144.32-2.2 145.31-2.62 146.3-3.05 146.3-3.05ZM160.14-1.95L160.14 0 147.98 0 147.98-1.95 150.64-2.1Q150.99-2.1 151.36-2.47 151.74-2.83 151.74-3.15L151.74-3.15 151.74-33.25 147.93-33.25 147.93-34.91 154.33-36.84 156.38-36.84 156.38-3.15Q156.38-2.83 156.75-2.47 157.11-2.1 157.43-2.1L157.43-2.1 160.14-1.95ZM172.37-32.35L172.37-32.35Q172.37-31.08 171.49-30.16 170.61-29.25 169.34-29.25L169.34-29.25Q168.07-29.25 167.16-30.16 166.24-31.08 166.24-32.35L166.24-32.35Q166.24-33.64 167.16-34.52 168.07-35.4 169.34-35.4L169.34-35.4Q170.61-35.4 171.49-34.52 172.37-33.64 172.37-32.35ZM174.93-1.95L174.93 0 163.19 0 163.19-1.95 165.63-2.1Q166.68-2.17 166.68-3.2L166.68-3.2 166.68-21.04 163.24-21.04 163.24-22.8 169.34-24.71 171.32-24.71 171.32-3.2Q171.32-2.73 171.63-2.44 171.93-2.15 172.37-2.1L172.37-2.1 174.93-1.95ZM203.98-1.95L203.98 0 192.95 0 192.95-1.95 195.05-2.1Q195.49-2.15 195.79-2.44 196.1-2.73 196.1-3.2L196.1-3.2 196.1-16.21Q196.1-18.58 195-19.81 193.9-21.04 191.29-21.04L191.29-21.04Q189.87-21.04 188.47-20.64 187.06-20.24 185.8-19.6L185.8-19.6 185.8-3.2Q185.8-2.17 186.85-2.1L186.85-2.1 188.94-1.95 188.94 0 177.64 0 177.64-1.95 180.08-2.1Q181.13-2.17 181.13-3.2L181.13-3.2 181.13-20.56 177.64-20.56 177.64-22.19 183.74-24.1 185.8-24.1 185.8-21.61Q187.9-22.8 190.1-23.75 192.31-24.71 194.05-24.71L194.05-24.71Q197.32-24.71 199.03-22.67 200.74-20.63 200.74-16.99L200.74-16.99 200.74-3.2Q200.74-2.73 201.04-2.44 201.35-2.15 201.79-2.1L201.79-2.1 203.98-1.95ZM231.18-1.95L231.18 0 223.17 0 223.17-1.95 216.92-11.35 214.14-11.35 214.14-3.2Q214.14-2.17 215.19-2.1L215.19-2.1 217.34-1.95 217.34 0 205.98 0 205.98-1.95 208.42-2.1Q209.47-2.17 209.47-3.2L209.47-3.2 209.47-33.25 205.69-33.25 205.69-34.91 212.09-36.84 214.14-36.84 214.14-12.79 215.14-12.79 222.49-21.09Q222.58-21.22 222.58-21.41L222.58-21.41Q222.58-21.9 222.07-21.95L222.07-21.95 220.02-22.14 220.02-24.1 229.74-24.1 229.74-22.14 226.54-21.8 219.92-14.75 228.54-2.25 231.18-1.95ZM249.88-7.25L249.88-7.25Q249.88-3.56 247.34-1.48 244.8 0.61 240.33 0.61L240.33 0.61Q238.04 0.61 236.1 0.13 234.15-0.34 233.4-0.66L233.4-0.66 233.4-7.3 235.94-7.3 236.55-3.05Q237.3-2.56 238.41-2.11 239.53-1.66 240.99-1.66L240.99-1.66Q243.14-1.66 244.31-2.86 245.48-4.05 245.48-5.54L245.48-5.54Q245.48-7.52 244.07-8.53 242.65-9.55 240.04-10.79L240.04-10.79 239.38-11.11Q236.64-12.4 235.19-13.81 233.74-15.21 233.74-17.46L233.74-17.46Q233.74-20.8 236.08-22.75 238.43-24.71 242.75-24.71L242.75-24.71Q244.95-24.71 246.67-24.3 248.39-23.9 249.14-23.56L249.14-23.56 249.14-17.65 246.53-17.65 246.14-21.14Q245.6-21.56 244.56-21.92 243.51-22.29 242.33-22.29L242.33-22.29Q240.28-22.29 239.28-21.35 238.28-20.41 238.28-18.95L238.28-18.95Q238.28-17.26 239.49-16.27 240.7-15.28 243.87-13.84L243.87-13.84Q246.48-12.65 248.18-11.17 249.88-9.69 249.88-7.25Z" opacity="1" transform="matrix(1,0,0,1,0,0)" fill="#ffffff" class="wordmark-text-0" data-fill-palette-color="primary" id="text-0"/></svg></g></svg></g></svg></g></svg></g><g><svg viewBox="0 0 108.87262118335197 79.6773390868243" height="79.6773390868243" width="108.87262118335197"><g><svg xmlns="http://www.w3.org/2000/svg" xmlns:xlink="http://www.w3.org/1999/xlink" version="1.1" x="0" y="0" viewBox="0 13.408 100 73.184" enable-background="new 0 0 100 100" xml:space="preserve" height="79.6773390868243" width="108.87262118335197" class="icon-icon-0" data-fill-palette-color="accent" id="icon-0"><path d="M47.827 28.983L47.81 28.997A27 27 0 0 0 45.816 30.709L45.795 30.73A27 27 0 0 0 43.978 32.634L43.971 32.643C39.944 37.305 37.5 43.37 37.5 50 37.5 54.225 38.495 58.22 40.255 61.771 43.874 60.389 46.76 57.372 47.931 53.665A16.3 16.3 0 0 1 47.5 50C47.5 46.839 48.43 43.876 50.004 41.344 50.229 40.982 50.467 40.629 50.718 40.285A17 17 0 0 1 53.135 37.63C53.211 37.562 53.283 37.49 53.362 37.424 53.575 37.24 53.8 37.068 54.022 36.895A15.5 15.5 0 0 1 55.873 35.646C56.036 35.552 56.197 35.454 56.363 35.365 56.782 35.14 57.209 34.928 57.648 34.74L57.66 34.734A16.3 16.3 0 0 1 64.092 33.411H89.842C95.451 33.411 99.998 28.933 99.998 23.411H64.092V23.408A26.44 26.44 0 0 0 47.827 28.983" fill="#1976d2" data-fill-palette-color="accent"/><path d="M100 66.591H64.092C63.284 66.591 62.495 66.511 61.717 66.397A30.9 30.9 0 0 1 54.049 74.618 26.5 26.5 0 0 0 64.014 76.592H64A5 5 0 0 1 69 81.592V86.592z" fill="#1976d2" data-fill-palette-color="accent"/><path d="M35.908 33.409C36.716 33.409 37.505 33.489 38.284 33.603A30.8 30.8 0 0 1 45.952 25.383 26.5 26.5 0 0 0 35.986 23.408H36A5 5 0 0 1 31 18.408V13.408L0 33.408z" fill="#1976d2" data-fill-palette-color="accent"/><path d="M50.003 72.536A27 27 0 0 0 52.171 71.018L52.192 71.001A27 27 0 0 0 56.017 67.369C56.021 67.364 56.025 67.358 56.031 67.353A27 27 0 0 0 57.654 65.274L57.66 65.267H57.659A26.44 26.44 0 0 0 62.498 49.999C62.498 45.774 61.504 41.779 59.742 38.228 56.123 39.61 53.237 42.627 52.066 46.335 52.339 47.518 52.498 48.741 52.498 49.999 52.498 53.157 51.57 56.117 49.998 58.647A17.1 17.1 0 0 1 46.861 62.37C46.785 62.437 46.713 62.509 46.636 62.574 46.422 62.759 46.198 62.931 45.975 63.104A15.4 15.4 0 0 1 44.128 64.35C43.963 64.446 43.801 64.545 43.633 64.635A16 16 0 0 1 42.361 65.253L42.337 65.265A16.3 16.3 0 0 1 35.905 66.588H10.157C4.547 66.588 0 71.066 0 76.588H35.908V76.592C41.082 76.592 45.912 75.102 50.001 72.534 50.002 72.537 50.003 72.536 50.003 72.536" fill="#1976d2" data-fill-palette-color="accent"/></svg></g></svg></g></svg></g><defs/></svg><rect width="395.52" height="60.33677779652193" fill="none" stroke="none" visibility="hidden"/></g></svg></g></svg>